<?xml version="1.0" encoding="utf-8"?>
<!-- Generator: Adobe Illustrator 23.0.3, SVG Export Plug-In . SVG Version: 6.00 Build 0)  -->
<svg version="1.1" id="Layer_1" xmlns="http://www.w3.org/2000/svg" xmlns:xlink="http://www.w3.org/1999/xlink" x="0px" y="0px"
	 viewBox="0 0 125 125" style="enable-background:new 0 0 125 125;" xml:space="preserve">
<style type="text/css">
	.st0{fill:#4A2C7B;}
</style>
<g>
	<path class="st0" d="M102.5,42.8v18h-80v-18H102.5 M104.5,40.8h-84v22h84V40.8L104.5,40.8z"/>
</g>
<g>
	<g>
		<path class="st0" d="M32.2,53.4h-2.9l-1.4,2.7h-1.1l4.7-8.6h1l1.1,8.6h-1L32.2,53.4z M32.1,52.4l-0.2-1.8
			c-0.1-0.7-0.2-1.4-0.2-2.1c-0.1,0.3-0.3,0.7-0.5,1s-0.7,1.3-1.5,2.8H32.1z"/>
		<path class="st0" d="M36.8,52.5L36,56.1h-1l1.8-8.6h1.9c1.7,0,2.6,0.7,2.6,2.1c0,1.4-0.7,2.2-2.2,2.6l1.4,3.8h-1.1l-1.2-3.6H36.8z
			 M37.7,48.4c-0.4,1.9-0.6,3-0.7,3.3h1c0.8,0,1.3-0.2,1.7-0.5s0.6-0.8,0.6-1.4c0-0.5-0.1-0.8-0.4-1s-0.7-0.3-1.3-0.3H37.7z"/>
		<path class="st0" d="M47.3,48.3c-0.7,0-1.3,0.2-1.8,0.6s-1,0.9-1.3,1.7s-0.5,1.5-0.5,2.4c0,0.7,0.2,1.3,0.6,1.7s0.9,0.7,1.6,0.7
			c0.5,0,1.2-0.1,1.9-0.3v0.9c-0.3,0.1-0.7,0.2-1,0.3s-0.7,0.1-1.1,0.1c-0.9,0-1.7-0.3-2.2-0.9s-0.8-1.4-0.8-2.4c0-1,0.2-2,0.6-2.8
			s1-1.5,1.7-2s1.5-0.7,2.4-0.7c0.8,0,1.4,0.2,2,0.5l-0.4,0.8C48.4,48.4,47.8,48.3,47.3,48.3z"/>
		<path class="st0" d="M55.6,56.1h-1l0.8-4h-3.9l-0.8,4h-1l1.8-8.6h1l-0.8,3.6h3.9l0.8-3.6h1L55.6,56.1z"/>
		<path class="st0" d="M58.3,56.1l1.8-8.6h1l-1.8,8.6H58.3z"/>
		<path class="st0" d="M67,48.3c-0.7,0-1.3,0.2-1.8,0.6s-1,0.9-1.3,1.7s-0.5,1.5-0.5,2.4c0,0.7,0.2,1.3,0.6,1.7s0.9,0.7,1.6,0.7
			c0.5,0,1.2-0.1,1.9-0.3v0.9c-0.3,0.1-0.7,0.2-1,0.3s-0.7,0.1-1.1,0.1c-0.9,0-1.7-0.3-2.2-0.9s-0.8-1.4-0.8-2.4c0-1,0.2-2,0.6-2.8
			s1-1.5,1.7-2s1.5-0.7,2.4-0.7c0.8,0,1.4,0.2,2,0.5l-0.4,0.8C68,48.4,67.5,48.3,67,48.3z"/>
		<path class="st0" d="M73.7,56.1h-4.3l1.8-8.6h4.3l-0.2,0.9H72l-0.6,2.7h3.1L74.3,52h-3.1l-0.7,3.1h3.3L73.7,56.1z"/>
		<path class="st0" d="M79.9,47.5c1.7,0,2.5,0.7,2.5,2c0,0.6-0.2,1-0.5,1.4s-0.8,0.6-1.4,0.7v0.1c0.4,0.1,0.8,0.3,1,0.6
			s0.4,0.7,0.4,1.1c0,0.8-0.3,1.5-0.9,1.9s-1.4,0.7-2.4,0.7h-2.7l1.8-8.6H79.9z M77.1,55.2h1.6c0.7,0,1.3-0.2,1.6-0.5
			s0.6-0.8,0.6-1.3c0-0.5-0.1-0.8-0.4-1S79.7,52,79.1,52h-1.4L77.1,55.2z M77.9,51.2h1.5c0.6,0,1.1-0.1,1.5-0.4s0.5-0.7,0.5-1.2
			c0-0.4-0.1-0.7-0.4-0.9s-0.7-0.3-1.2-0.3h-1.2L77.9,51.2z"/>
		<path class="st0" d="M91.2,47.5L90,53.2c-0.2,1-0.6,1.8-1.2,2.3s-1.3,0.7-2.3,0.7c-0.9,0-1.6-0.2-2-0.6s-0.7-1-0.7-1.8
			c0-0.3,0-0.7,0.1-1.2l1.1-5.1h1l-1.1,5.2c-0.1,0.4-0.1,0.8-0.1,1.1c0,0.5,0.1,0.8,0.4,1.1s0.7,0.4,1.3,0.4c0.7,0,1.2-0.2,1.6-0.5
			s0.6-0.9,0.8-1.7l1.2-5.6H91.2z"/>
		<path class="st0" d="M96.9,53.6c0,0.8-0.3,1.5-0.8,1.9s-1.3,0.7-2.3,0.7c-0.4,0-0.8,0-1.1-0.1S92,56,91.7,55.8v-1
			c0.6,0.3,1.3,0.5,2,0.5c0.6,0,1.1-0.1,1.5-0.4s0.6-0.7,0.6-1.2c0-0.3-0.1-0.6-0.3-0.8s-0.6-0.5-1.1-0.8c-0.6-0.3-1-0.7-1.2-1
			s-0.3-0.7-0.3-1.2c0-0.7,0.3-1.3,0.8-1.8s1.2-0.7,2-0.7c0.4,0,0.7,0,1.1,0.1s0.7,0.2,1.1,0.4l-0.4,0.9c-0.3-0.1-0.5-0.3-0.9-0.4
			s-0.6-0.1-0.9-0.1c-0.5,0-0.9,0.1-1.3,0.4s-0.5,0.6-0.5,1.1c0,0.2,0,0.4,0.1,0.5s0.2,0.3,0.3,0.4s0.4,0.3,0.8,0.6
			c0.6,0.3,1,0.6,1.2,0.8s0.4,0.4,0.5,0.6S96.9,53.3,96.9,53.6z"/>
	</g>
</g>
<polygon class="st0" points="27.5,60.8 27.5,70.8 13.5,70.8 13.5,52.8 22.5,52.8 22.5,50.8 11.5,50.8 11.5,72.8 29.5,72.8 
	29.5,60.8 "/>
<polygon class="st0" points="29.5,70.8 27.5,70.8 20.5,62.8 22.5,62.8 "/>
<polygon class="st0" points="97.5,60.8 97.5,70.8 111.5,70.8 111.5,52.8 102.5,52.8 102.5,50.8 113.5,50.8 113.5,72.8 95.5,72.8 
	95.5,60.8 "/>
<polygon class="st0" points="95.5,70.8 97.5,70.8 104.5,62.8 102.5,62.8 "/>
<path class="st0" d="M64.6,62.8l-3,6.8L54.8,68l-5,5l3.3,7.5L51.5,83l-10.9-1.7l-3.3-6.7L36.7,74l3.6-11.2H38l-4.5,13.8l5.6,17.2
	l14.6,10.6h18.1l14.6-10.6L92,76.6l-4.5-13.8H64.6z M74.7,99.7l-3.6,2.6h-8.5h-8.1l6.7-7.1l-6.7-8.4l2.5-2.5l8.4,1.7H72l7.5,5.9
	L74.7,99.7z M89.5,77.4l-0.9,2.9l-10.4-7.2v-4.2h2.5l4.2-5l0.9,0.6l3.9,11.9L89.5,77.4z"/>
<g>
	<path class="st0" d="M24.8,24.1H30c0.9,0,1.8,0.4,2.5,1.1c0.7,0.7,1.1,1.6,1.1,2.5v0c0,1-0.4,1.9-1.1,2.6c-0.7,0.7-1.6,1.1-2.6,1.1
		l-1.5,0c-1,0-1.5-0.5-1.5-1.5c0-1,0.5-1.5,1.5-1.5l1,0c0.8,0,1.2-0.2,1.2-0.7c0-0.5-0.4-0.7-1.2-0.7h-3.2v7.3c0,1-0.5,1.5-1.5,1.5
		c-1,0-1.5-0.5-1.5-1.5v-8.9C23.3,24.6,23.8,24.1,24.8,24.1z"/>
	<path class="st0" d="M37.1,24.1h5.2c1,0,1.8,0.4,2.5,1.1c0.7,0.7,1.1,1.6,1.1,2.5c0,1-0.2,1.9-0.6,2.6c-0.4,0.7-0.9,1.1-1.7,1.1
		l1.8,1.8c0.3,0.3,0.4,0.7,0.4,1.1c0,1-0.5,1.5-1.5,1.5h0c-0.5,0-1-0.2-1.4-0.7L40,31.5c-0.5-0.5-0.7-1-0.8-1.5c0-1,0.5-1.5,1.5-1.5
		l1,0c0.8,0,1.2-0.2,1.2-0.7c0-0.5-0.4-0.7-1.2-0.7h-3.2v7.3c0,1-0.5,1.5-1.5,1.5c-1,0-1.5-0.5-1.5-1.5v-8.9
		C35.6,24.6,36.1,24.1,37.1,24.1z"/>
	<path class="st0" d="M53.7,24.1c1,0,2,0.3,2.9,0.8c0.9,0.5,1.7,1.2,2.2,2.2c0.5,0.9,0.8,1.9,0.8,3c0,1-0.3,2-0.8,2.9
		c-0.5,0.9-1.2,1.7-2.2,2.2c-0.9,0.5-1.9,0.8-2.9,0.8c-1,0-2-0.3-2.9-0.8s-1.7-1.2-2.2-2.2C48.1,32,47.8,31,47.8,30c0-1,0.3-2,0.8-3
		c0.5-0.9,1.3-1.7,2.2-2.2C51.8,24.4,52.7,24.1,53.7,24.1z M52.3,27.4c-0.5,0.3-0.8,0.6-1.1,1.1c-0.3,0.5-0.4,1-0.4,1.5
		c0,0.5,0.1,1,0.4,1.5s0.6,0.8,1.1,1.1c0.5,0.3,1,0.4,1.5,0.4c0.5,0,1-0.1,1.5-0.4c0.5-0.3,0.8-0.6,1.1-1.1c0.3-0.5,0.4-1,0.4-1.5
		c0-0.5-0.1-1-0.4-1.5c-0.3-0.5-0.6-0.8-1.1-1.1c-0.5-0.3-1-0.4-1.4-0.4C53.2,27.1,52.8,27.2,52.3,27.4z"/>
	<path class="st0" d="M66.8,25.6v6.7c0,1.4-0.2,2.4-0.7,2.9c-0.5,0.5-1.5,0.7-2.9,0.7c-1,0-1.5-0.5-1.5-1.5c0-1,0.5-1.5,1.5-1.5
		c0.5,0,0.7-0.2,0.7-0.7l0-6.7c0-0.9,0.5-1.4,1.5-1.4C66.3,24.1,66.8,24.6,66.8,25.6z"/>
	<path class="st0" d="M70.3,24.1l7.5,0c0.9,0,1.4,0.5,1.4,1.4c0,1-0.5,1.5-1.5,1.5h-5.9v5.9h5.9c1,0,1.5,0.5,1.5,1.5
		c0,1-0.5,1.5-1.5,1.5h-7.4c-1,0-1.5-0.5-1.5-1.4v-8.9C68.8,24.6,69.3,24.1,70.3,24.1z M72.4,30c0-1,0.5-1.5,1.5-1.5h3
		c1,0,1.5,0.5,1.5,1.5c0,1-0.5,1.5-1.5,1.5h-3C72.9,31.5,72.4,31,72.4,30z"/>
	<path class="st0" d="M86.9,24.1l3,0c1,0,1.5,0.5,1.5,1.5c0,1-0.5,1.5-1.5,1.5l-2.9,0c-2,0-2.9,1-2.9,2.9c0,2,1,2.9,2.9,2.9h2.9
		c1,0,1.5,0.5,1.5,1.5c0,1-0.5,1.5-1.5,1.5h-2.9c-3.9,0-5.9-2-5.9-5.9C81,26.1,83,24.1,86.9,24.1L86.9,24.1z"/>
	<path class="st0" d="M94.6,24.1l7.5,0c0.9,0,1.4,0.5,1.4,1.4c0,1-0.5,1.5-1.5,1.5h-2.2l0,7.4c0,1-0.5,1.5-1.5,1.5
		c-1,0-1.5-0.5-1.5-1.4l0-7.4h-2.2c-1,0-1.5-0.5-1.5-1.5C93.2,24.6,93.7,24.1,94.6,24.1z"/>
</g>
</svg>
