<svg id="Layer_1" data-name="Layer 1" xmlns="http://www.w3.org/2000/svg" viewBox="0 0 44 44"><title>crm_icon_download_signed</title><path d="M29.67,0h-22A3.73,3.73,0,0,0,4,4V40a3.73,3.73,0,0,0,3.67,4h28A4.29,4.29,0,0,0,40,40V11ZM38,40a2.3,2.3,0,0,1-2.33,2h-28C6.57,42,6,41.11,6,40V4c0-1.1.57-2,1.67-2H26V12c0,1.1.57,2,1.67,2H38ZM28,12V2h.67l9,10Z"/><g id="Share"><path d="M30,29.5a1,1,0,0,0-.71.29L23,36.09V17.5a1,1,0,0,0-2,0V36.09l-6.29-6.29a1,1,0,1,0-1.41,1.41l8,8a1,1,0,0,0,1.41,0l8-8A1,1,0,0,0,30,29.5Z"/></g></svg>